<svg width="100%" height="100%" style="position: absolute; left: 0px; top: 0px; padding: inherit;" xmlns="http://www.w3.org/2000/svg" xmlns:xlink="http://www.w3.org/1999/xlink"><defs></defs><g cursor="default" font-size="14px" font-family="-apple-system,'system-ui','Segoe UI','Helvetica Neue',Arial,sans-serif" font-weight="400"><g cursor="default"><g><rect width="1550" height="300" fill="rgba(0,0,0,0)"></rect><g transform="matrix(1,0,0,1,1482,122)"><g><rect width="58" height="56" fill="rgba(0,0,0,0)"></rect><g><g><text dominant-baseline="text-before-edge" fill="rgba(0, 0, 0, 0.8)" font-size="12px" x="19" y="4.25">Tokyo</text><path d="M3,5H13V15H3Z" fill="rgb(35, 123, 177)" shape-rendering="crispEdges"></path><rect x="1" y="1" width="56" height="18" fill="rgba(0,0,0,0)"></rect><text dominant-baseline="text-before-edge" fill="rgba(0, 0, 0, 0.8)" font-size="12px" x="19" y="22.25">Austin</text><path d="M3,23H13V33H3Z" fill="rgb(104, 193, 130)" shape-rendering="crispEdges"></path><rect x="1" y="19" width="56" height="18" fill="rgba(0,0,0,0)"></rect><text dominant-baseline="text-before-edge" fill="rgba(0, 0, 0, 0.8)" font-size="12px" x="19" y="40.25">Other</text><path d="M3,41H13V51H3Z" fill="rgb(250, 213, 92)" shape-rendering="crispEdges"></path><rect x="1" y="37" width="56" height="18" fill="rgba(0,0,0,0)"></rect></g></g></g></g><g><g><path d="M737.5551271202812,146.27648175499425L713.521377182915,45.837641035838274A107,107,0,0,1,737.25,43.00262853695891Z" fill="rgb(250, 213, 92)" cursor="pointer"></path><g cursor="pointer" role="img" aria-label="Series: Tokyo; Value: 9.274M; Percentage: 87.2%. Unselected"><path d="M738,150L738,43A107,107,0,1,1,660.7077915325468,76.0073347538842Z" fill="rgb(35, 123, 177)"></path><path d="M739.25,152.92708457997952L739.2500000000001,44.257387964926835A105.75,105.75,0,1,1,660.751674347051,77.7797903366659Z" fill="rgba(0,0,0,0)" pointer-events="visiblePainted"></path><path d="M740.25,155.26875224396312L740.25,45.27416746571073A104.75,104.75,0,1,1,660.7946319909192,79.2052710254329Z" fill="rgba(0,0,0,0)" pointer-events="visiblePainted"></path></g><g cursor="pointer" role="img" aria-label="Series: Austin; Value: 964.3K; Percentage: 9.06%. Unselected" id="_dvtActiveElement374333309"><path d="M736.6673197415538,147.68594315274828L661.2283304518102,75.46738462402156A107,107,0,0,1,712.0635983837916,46.19102605649769Z" fill="rgb(104, 193, 130)"></path><path d="M734.4461859774768,143.8291817406621L663.0074411866717,75.44010043844281A105.75,105.75,0,0,1,711.1471069796062,47.71615652296164Z" fill="rgba(0,0,0,0)" pointer-events="visiblePainted"></path><path d="M732.6692789662152,140.74377261099315L664.4386941021717,75.4258974267466A104.75,104.75,0,0,1,710.4165113472791,48.946976028694635Z" fill="rgba(0,0,0,0)" pointer-events="visiblePainted"></path></g></g><g cursor="pointer"><text dominant-baseline="text-before-edge" fill="rgb(51, 51, 51)" font-size="12px" text-anchor="end" y="28.005837252202525" x="724.7985455853059">3.79%</text></g><g cursor="pointer"><text dominant-baseline="text-before-edge" fill="rgb(51, 51, 51)" font-size="12px" text-anchor="end" y="42.068461308596554" x="682.4644551155897">9.06%</text></g><text dominant-baseline="middle" fill="#FFFFFF" font-size="12px" x="765.3146397183472" y="213.96180858181617" text-anchor="middle" cursor="pointer">87.2%</text></g></g></g></g></svg>